<svg id="Layer_1" data-name="Layer 1" xmlns="http://www.w3.org/2000/svg" viewBox="0 0 10 10"><defs><style>.cls-1{fill:#21767c;}</style></defs><path class="cls-1" d="M5,1.94c1.48,0,3,0,4.44,0a.5.5,0,0,1,.52.53c0,1.68,0,3.37,0,5.06a.48.48,0,0,1-.31.5.57.57,0,0,1-.18,0h-9A.47.47,0,0,1,0,7.57V2.43a.47.47,0,0,1,.49-.49ZM5.66,5A2.58,2.58,0,1,0,3.09,7.57,2.56,2.56,0,0,0,5.66,5Zm3.78-.94H6.11C6,4.05,6,4,6,4.17s0,.07.07.07H9.44ZM6,5.37H9.44V5.2H6Zm3.44-.56V4.62H6.15c-.17,0-.17,0-.16.17v0Zm0,1.13V5.86c0-.12,0-.1-.1-.1H6l0,0v.15Z"/><path class="cls-1" d="M3.71,5.29a.68.68,0,0,1-.34.33,2.56,2.56,0,0,1,.11.24c.09.22.18.44.25.67a1,1,0,0,1,0,.3.17.17,0,0,1-.07.1A1.08,1.08,0,0,1,2.52,7a.21.21,0,0,1-.11-.21,1.3,1.3,0,0,1,.11-.48l.24-.57a.59.59,0,0,0,0-.08.66.66,0,0,1-.33-.33l-.42.18c-.19.08-.39.14-.58.2h0c-.2,0-.26,0-.35-.18a1.08,1.08,0,0,1,0-1.06.2.2,0,0,1,.2-.11,3.13,3.13,0,0,1,.44.1,6.14,6.14,0,0,1,.59.25l.11,0a.75.75,0,0,1,.33-.33c0-.11-.1-.21-.14-.31a2.82,2.82,0,0,1-.24-.69c0-.22,0-.29.2-.39a1.08,1.08,0,0,1,1,0,.23.23,0,0,1,.13.24c0,.13,0,.27-.09.39s-.18.43-.27.65l0,.07a.77.77,0,0,1,.34.33c.17-.07.33-.16.5-.22a4.81,4.81,0,0,1,.54-.16.24.24,0,0,1,.32.15,1.06,1.06,0,0,1,0,1.1.15.15,0,0,1-.16.1,2.79,2.79,0,0,1-.4-.07c-.24-.09-.47-.2-.71-.3Z"/></svg>