<svg id="Layer_1" data-name="Layer 1" xmlns="http://www.w3.org/2000/svg" viewBox="0 0 10 10"><defs><style>.cls-1{fill:#21767c;}</style></defs><path class="cls-1" d="M.07,1.26H3.19v3.9H.07Zm2.77,3.3a2.09,2.09,0,0,0,0-.25c0-.08,0-.12-.13-.12a.11.11,0,0,0-.11.12,3.84,3.84,0,0,0,0,.48c0,.07,0,.13.12.12s.12,0,.12-.13A1.62,1.62,0,0,0,2.84,4.56Z"/><path class="cls-1" d="M6.56,5.17H3.44V1.26H6.56Zm-.32-.61V4.31a.11.11,0,0,0-.12-.12S6,4.26,6,4.3a4.34,4.34,0,0,0,0,.51.11.11,0,0,0,.14.1c.07,0,.11,0,.11-.12Z"/><path class="cls-1" d="M3.19,8.74H.07V5.42H3.19ZM2.6,6.09a1.77,1.77,0,0,0,0,.23c0,.08,0,.14.12.13s.12-.06.12-.14V5.87c0-.09,0-.14-.12-.14s-.12.06-.12.14A1.62,1.62,0,0,0,2.6,6.09Z"/><path class="cls-1" d="M9.93,8.74H6.81V5.41H9.93ZM9.4,6.33h-2c-.09,0-.1,0-.1.1V8.17s0,.07,0,.1H9.4Zm-2-.24a.15.15,0,1,0,0-.29.14.14,0,0,0-.15.14A.15.15,0,0,0,7.36,6.09Zm1-.3a.15.15,0,0,0-.15.15.14.14,0,0,0,.15.15.15.15,0,0,0,0-.3Zm-.51,0a.15.15,0,0,0,0,.3A.15.15,0,0,0,8,6,.15.15,0,0,0,7.87,5.79Zm1.52.3a.15.15,0,0,0,.15-.15.17.17,0,0,0-.15-.15.15.15,0,0,0-.15.15A.14.14,0,0,0,9.39,6.09Zm-.51,0A.15.15,0,0,0,9,5.94a.15.15,0,0,0-.15-.15A.17.17,0,0,0,8.73,6,.15.15,0,0,0,8.88,6.09Z"/><path class="cls-1" d="M3.44,7.56v-1H6.56v1ZM5,7H4.77c-.08,0-.13,0-.13.12a.11.11,0,0,0,.12.12h.48a.11.11,0,0,0,.12-.12A.11.11,0,0,0,5.24,7Z"/><path class="cls-1" d="M6.56,5.42v.92H3.44V5.42ZM5,5.76H4.77c-.08,0-.13,0-.13.12s.05.12.13.12h.47c.08,0,.13,0,.12-.13a.11.11,0,0,0-.12-.11Z"/><path class="cls-1" d="M6.56,7.82v.92H3.44V7.82ZM5,8.4h.23c.08,0,.13,0,.13-.12s-.05-.12-.13-.13H4.76c-.08,0-.13,0-.12.12a.11.11,0,0,0,.12.12Z"/><path class="cls-1" d="M8.87,1.26v2h-1v-2Z"/><path class="cls-1" d="M9.69,4.4H7.06s0-.05.05-.06L7.8,3.6A.28.28,0,0,1,8,3.53h.82a.18.18,0,0,1,.13,0l.75.79S9.68,4.38,9.69,4.4Z"/></svg>