<svg id="Layer_1" data-name="Layer 1" xmlns="http://www.w3.org/2000/svg" viewBox="0 0 10 10"><defs><style>.cls-1{fill:#21767c;}</style></defs><path class="cls-1" d="M10,2.11c-.09.46-.16.94-.28,1.4a3.53,3.53,0,0,1-.81,1.57,1.84,1.84,0,0,1-1.57.62,4,4,0,0,1,.86-1.9,4.27,4.27,0,0,0-1,1A7.17,7.17,0,0,0,5.84,7.36a4.66,4.66,0,0,0,0,1c0,.38,0,.76,0,1.15a.46.46,0,0,1-.43.5A.48.48,0,0,1,5,9.5c0-.59,0-1.19-.09-1.79A9.1,9.1,0,0,0,3.46,3.65c-.25-.4-.52-.8-.8-1.19a7,7,0,0,1,.6,2.47,2.12,2.12,0,0,1-1.62-.55A4,4,0,0,1,.43,2.28C.26,1.68.18,1.06.06.44c0-.06,0-.11,0-.17V0H.2L.42,0A7.25,7.25,0,0,1,2.85.61,5.44,5.44,0,0,1,4,1.32,2.52,2.52,0,0,1,4.77,4a.53.53,0,0,0,.05.35c.16.38.33.75.49,1.13a2.32,2.32,0,0,1,.13.37c.18-.24.34-.47.52-.67a.41.41,0,0,0,.1-.38,1.9,1.9,0,0,1,.79-2A5.52,5.52,0,0,1,10,1.84Z"/></svg>