<svg id="Layer_1" data-name="Layer 1" xmlns="http://www.w3.org/2000/svg" viewBox="0 0 10 10"><defs><style>.cls-1{fill:#21767c;}</style></defs><path class="cls-1" d="M10,8.59a2.52,2.52,0,0,1-1.62.74A4.16,4.16,0,0,1,6.93,9c-.74-.28-1.49-.58-2.25-.8a4.6,4.6,0,0,0-2.12-.07,2.73,2.73,0,0,0-1.77,1L0,8.68v0A3.71,3.71,0,0,1,2.6,7.16a7.74,7.74,0,0,1,4.18.73,11.19,11.19,0,0,0,1.14.44A1.24,1.24,0,0,0,9.2,8.05l.21-.17.61.66Z"/><path class="cls-1" d="M9.41,3.24a8.78,8.78,0,0,0-1,.73,1.71,1.71,0,0,0,.14,2.74.32.32,0,0,0,.25,0c.23-.12.45-.27.64-.39l.42.35a2.1,2.1,0,0,1-2.43.56c-.69-.25-1.35-.56-2-.79a5.48,5.48,0,0,0-3.28-.16,2.87,2.87,0,0,0-1.5,1L.39,7.17.09,7c.26-.25.48-.48.73-.69A.3.3,0,0,0,.94,6,5.7,5.7,0,0,1,2.13,2a3.65,3.65,0,0,1,3-1.35,5.58,5.58,0,0,1,2.54.68c-.3,0-.56.06-.81.11a2.92,2.92,0,0,0-1.83,1,2.54,2.54,0,0,0-.26,2.76,4.37,4.37,0,0,0,.37.62A3.54,3.54,0,0,1,6.78,3.62,3.78,3.78,0,0,1,9.41,3.24Z"/></svg>