<svg id="Layer_1" data-name="Layer 1" xmlns="http://www.w3.org/2000/svg" viewBox="0 0 10 10"><defs><style>.cls-1{fill:#21767c;}</style></defs><path class="cls-1" d="M5.66,3.11h.88c.77,0,1.53,0,2.3,0A1.16,1.16,0,0,1,10,4.26c0,1.55,0,3.11,0,4.66a1.06,1.06,0,0,1-1,1H1.12a1.09,1.09,0,0,1-1-1.06V4.22a1,1,0,0,1,.49-.91,1.41,1.41,0,0,1,.67-.19c1,0,2,0,3,0l.29,0L4,2.57c-.23-.24-.47-.48-.69-.72a.38.38,0,0,1,0-.57.37.37,0,0,1,.53.05c.4.41.79.84,1.19,1.26h.11a.92.92,0,0,1,.13-.21L7.38.23A.59.59,0,0,1,7.65.06.32.32,0,0,1,8,.23.34.34,0,0,1,8,.67L6.25,2.43l-.61.62ZM4.09,9.25c.64,0,1.3-.05,2-.11A1.19,1.19,0,0,0,7.23,8a8.89,8.89,0,0,0,0-3A1.12,1.12,0,0,0,6.14,4a17.44,17.44,0,0,0-4,0C1.33,4,1,4.35.92,5.14a8.94,8.94,0,0,0,0,2.78A1.21,1.21,0,0,0,2.19,9.14C2.82,9.21,3.45,9.21,4.09,9.25ZM8.69,5a.59.59,0,1,0,0,1.18.58.58,0,0,0,.59-.58A.59.59,0,0,0,8.69,5Zm0,1.54a.57.57,0,0,0-.58.59.59.59,0,1,0,1.18,0A.58.58,0,0,0,8.67,6.53Z"/></svg>