<svg id="Layer_1" data-name="Layer 1" xmlns="http://www.w3.org/2000/svg" viewBox="0 0 10 10"><defs><style>.cls-1{fill:#21767c;}</style></defs><path class="cls-1" d="M8,7.21H2v.48A.27.27,0,0,1,1.69,8h-1A.26.26,0,0,1,.4,7.77V4.71A1.15,1.15,0,0,1,.71,4l.42-.48-.62-.2a.32.32,0,0,1-.25-.24A.32.32,0,0,1,.5,2.7h.63a.54.54,0,0,1,.27.11l.12.11.41-.84c.09-.18.2-.34.3-.52a.77.77,0,0,1,.63-.42C3.39,1.09,3.92,1,4.44,1a16.27,16.27,0,0,1,2.42.08h.32a.8.8,0,0,1,.59.42c.21.39.42.79.62,1.19a.66.66,0,0,1,.09.19c.19-.3.48-.25.76-.25h.2a.31.31,0,0,1,.3.27.3.3,0,0,1-.23.35,4.1,4.1,0,0,1-.5.14H8.87l.39.44a1.26,1.26,0,0,1,.33.88V7.55c0,.26-.08.34-.33.34H8.33c-.23,0-.33,0-.33-.22ZM1.85,3.3a30.25,30.25,0,0,1,6.31,0c-.23-.44-.43-.86-.65-1.26s-.15-.44-.77-.51a18.78,18.78,0,0,0-3,0,7.61,7.61,0,0,0-.82.09.36.36,0,0,0-.27.19c-.12.23-.26.46-.38.7S2,3,1.85,3.3Zm0,2.09a1.89,1.89,0,0,0,.34-.09A.37.37,0,0,0,2.38,5a.76.76,0,0,0-.63-.77.59.59,0,0,0-.7.45.55.55,0,0,0,.41.67h0l.33,0Zm6.47,0a2.4,2.4,0,0,0,.38-.12A.53.53,0,0,0,9,4.72a.57.57,0,0,0-.42-.5.71.71,0,0,0-.8.31.57.57,0,0,0-.08.6c.08.22.3.24.59.25ZM5,6.21H6a.12.12,0,0,0,.14-.1V5.76A.12.12,0,0,0,6,5.63h-2c-.1,0-.14,0-.14.15a1.31,1.31,0,0,1,0,.28c0,.13,0,.15.16.15Z"/></svg>