<?xml version="1.0" encoding="utf-8"?>
<!-- Generator: Adobe Illustrator 25.2.3, SVG Export Plug-In . SVG Version: 6.00 Build 0)  -->
<svg version="1.1" id="Layer_1" xmlns="http://www.w3.org/2000/svg" xmlns:xlink="http://www.w3.org/1999/xlink" x="0px" y="0px"
	 viewBox="0 0 18 17.9" style="enable-background:new 0 0 18 17.9;" xml:space="preserve">
<style type="text/css">
	.st0{fill-rule:evenodd;clip-rule:evenodd;fill:#333333;}
</style>
<path class="st0" d="M18,9c0-5-4.1-9-9-9S0,4.1,0,9c0,4.4,3.2,8.1,7.5,8.8v-6.3H5.2V9h2.3V7c-0.2-1.8,1.1-3.3,2.9-3.5
	c0.2,0,0.4,0,0.6,0c0.7,0,1.3,0.1,2,0.2v2.2h-1.1c-0.7-0.1-1.4,0.4-1.5,1.1c0,0.1,0,0.2,0,0.3V9h2.5l-0.4,2.6h-2.1v6.3
	C14.8,17.2,18,13.4,18,9z"/>
</svg>
