<?xml version="1.0" encoding="utf-8"?>
<!-- Generator: Adobe Illustrator 25.2.3, SVG Export Plug-In . SVG Version: 6.00 Build 0)  -->
<svg version="1.1" id="Layer_1" xmlns="http://www.w3.org/2000/svg" xmlns:xlink="http://www.w3.org/1999/xlink" x="0px" y="0px"
	 viewBox="0 0 18 18.1" style="enable-background:new 0 0 18 18.1;" xml:space="preserve">
<style type="text/css">
	.st0{fill:#333333;}
</style>
<path class="st0" d="M18,8.6c0,1.4,0,2.4,0,3.3c0,0.6,0,1.2-0.1,1.8c-0.2,1.2-0.8,2.4-1.7,3.2c-0.6,0.5-1.3,0.8-2,1
	C13.6,18,13,18,12.4,18c-1.9,0.1-3.8,0-5.7,0C6,18,5.5,18,4.9,18c-0.8,0-1.6-0.3-2.3-0.7c-1-0.6-1.8-1.5-2.2-2.7
	c-0.2-0.5-0.3-1.1-0.3-1.7C0,11.6,0,10.3,0,9c0-1,0-1.9,0-2.9c0-0.6,0-1.2,0.1-1.8c0.1-1.1,0.6-2.1,1.4-2.9C2.2,0.8,3,0.4,4,0.2
	C4.5,0.1,5.1,0.1,5.6,0C7.5,0,9.5,0,11.4,0c0.6,0,1.1,0,1.7,0.1c0.9,0,1.8,0.3,2.5,0.8c1,0.6,1.7,1.5,2,2.6c0.2,0.6,0.3,1.2,0.3,1.8
	C18,6.5,18,7.8,18,8.6z M16.4,9c0-1.3,0-2.5,0-3.8c0-0.5-0.1-0.9-0.2-1.4c-0.2-0.7-0.8-1.4-1.4-1.7c-0.5-0.2-1.1-0.4-1.6-0.4
	c-0.6,0-1.2-0.1-1.8-0.1c-1.9,0-3.8,0-5.8,0c-0.5,0-1.1,0.1-1.6,0.3C3.2,2.1,2.6,2.5,2.3,3C1.9,3.5,1.7,4.1,1.7,4.7
	c-0.1,0.6-0.1,1-0.1,1.6c0,2.1,0,4.2,0,6.4c0,0.5,0.1,0.9,0.2,1.4c0.2,0.7,0.6,1.3,1.2,1.8c0.5,0.3,1,0.5,1.6,0.6
	c0.5,0,1,0.1,1.5,0.1c2.1,0,4.2,0,6.4,0c0.4,0,0.8-0.1,1.2-0.2c0.7-0.2,1.4-0.6,1.9-1.2c0.4-0.5,0.6-1.1,0.6-1.8
	c0.1-0.5,0.1-1.1,0.1-1.6C16.4,10.8,16.4,9.9,16.4,9z"/>
<path class="st0" d="M9,4.4c2.6,0,4.6,2.1,4.6,4.6s-2.1,4.6-4.6,4.6S4.3,11.6,4.3,9c0,0,0,0,0,0C4.3,6.5,6.4,4.4,9,4.4
	C9,4.4,9,4.4,9,4.4z M12,9c0-1.7-1.3-3-3-3S6,7.4,6,9s1.3,3,3,3C10.6,12,12,10.7,12,9C12,9,12,9,12,9L12,9z"/>
<path class="st0" d="M14.9,4.2c0,0.6-0.5,1.1-1.1,1.1c-0.6,0-1.1-0.5-1.1-1.1c0-0.6,0.5-1.1,1.1-1.1c0,0,0,0,0,0
	C14.4,3.2,14.9,3.6,14.9,4.2C14.9,4.2,14.9,4.2,14.9,4.2z"/>
</svg>
