<?xml version="1.0" encoding="utf-8"?>
<!-- Generator: Adobe Illustrator 25.2.3, SVG Export Plug-In . SVG Version: 6.00 Build 0)  -->
<svg version="1.1" id="Layer_1" xmlns="http://www.w3.org/2000/svg" xmlns:xlink="http://www.w3.org/1999/xlink" x="0px" y="0px"
	 viewBox="0 0 18.9 22.1" style="enable-background:new 0 0 18.9 22.1;" xml:space="preserve">
<style type="text/css">
	.st0{fill:#333333;}
</style>
<path class="st0" d="M16.8,0H17c0.1,0.1,0.2,0.2,0.2,0.3v5c0,0.1,0,0.1,0.1,0.2L18.9,6v13.2l-3.2-1l-6.2-2c-0.1,0-0.1,0-0.2,0
	l-4.1,1.4l-4.9,1.6c-0.2,0.1-0.3,0-0.4-0.1V5.8c0-0.2,0.2-0.2,0.3-0.2L2,5c0.1,0,0.1-0.1,0.1-0.2c0-1.5,0-3,0-4.5c0,0,0-0.1,0-0.1
	h0.1l6.6,2.3c0.1,0,0.2,0,0.3,0l6.5-2.2L16.8,0z M9,3.2H8.9L7.3,3.7C5.1,4.5,2.8,5.2,0.6,6C0.5,6,0.5,6.1,0.5,6.1
	c0,4.1,0,8.3,0,12.4v0.2h0.2l8.3-2.8C9,15.9,9,15.9,9,15.8c0-4.1,0-8.3,0-12.5L9,3.2z M17,15.2c0,0,0-0.1,0-0.1
	c-0.7-2.6-1.4-5.1-2.1-7.7c0-0.2-0.2-0.4-0.4-0.4c-0.3-0.1-0.6-0.2-0.9-0.3l-2.7,6.6l1.2,0.4l0.6-1.4h0l2.5,0.8
	c0.1,0,0.1,0.1,0.1,0.1c0.1,0.5,0.3,1,0.4,1.5c0,0,0,0.1,0.1,0.1L17,15.2z M16.6,5.2V0.6L9.6,3L16.6,5.2z"/>
<path class="st0" d="M8.4,22.1L7.7,22c-0.7-0.1-1.4-0.3-2.1-0.6c-0.5-0.2-1.1-0.4-1.5-0.8l-0.2-0.1c-0.1-0.1-0.1-0.2,0-0.3
	c0.1-0.1,0.2-0.1,0.3-0.1c0,0,0,0,0,0c0.4,0.2,0.8,0.4,1.1,0.6c0.9,0.4,1.9,0.7,2.9,0.8c0.5,0,1,0,1.5,0c1-0.1,2.1-0.3,3-0.7
	c0.4-0.2,0.8-0.4,1.2-0.6l-0.6-0.9l1.9,0.2l-0.7,2l-0.5-0.8h0c-1.1,0.7-2.3,1.1-3.5,1.4l-0.7,0.1H8.4z"/>
<path class="st0" d="M2.2,9.7l0.3,0C3.2,9.5,4,9.3,4.7,9c0.5-0.2,1.1-0.4,1.6-0.6c0.2-0.1,0.4-0.2,0.6-0.2c0.1,0,0.1,0,0.1,0.1
	c0,0.2,0,0.4-0.1,0.5c-0.4,1-0.9,1.9-1.5,2.8c0,0,0,0,0,0.1l0.3,0.1l2.1,0.9c0.1,0,0.1,0.1,0.2,0.2c0,0.2,0.1,0.4,0.1,0.5l0,0H7.9
	c-0.7-0.2-1.4-0.6-2-1.1l-0.6-0.5l-0.1,0.2C4.4,13,3.6,14,2.7,15c-0.1,0.1-0.2,0.2-0.2,0.2c-0.2,0.1-0.4,0.2-0.6,0.1
	C3.6,13.5,5,11.4,6,9.2L5.6,9.3L3.7,9.8c-0.1,0-0.1,0.1-0.1,0.1c0,0,0,0,0,0c0,0.1-0.1,0.2-0.2,0.3c-0.3,0.1-0.5,0.1-0.8,0.1
	C2.4,10.2,2.2,10,2.2,9.7z"/>
<path class="st0" d="M3.3,7.4c0.4,0.1,0.8,0,1.1-0.1c0.3-0.1,0.5-0.1,0.8-0.2c0.1,0,0.3,0,0.3,0.2c0,0,0,0.1,0,0.1
	c0,0.2-0.1,0.4-0.3,0.5C5,8,4.7,8.1,4.4,8.2c-0.3,0.1-0.7,0-0.9-0.3C3.4,7.8,3.3,7.6,3.3,7.4z"/>
<path class="st0" d="M13.2,11.2l0.9-2.3l0.8,2.8L13.2,11.2z"/>
</svg>
