<?xml version="1.0" encoding="utf-8"?>
<!-- Generator: Adobe Illustrator 25.2.3, SVG Export Plug-In . SVG Version: 6.00 Build 0)  -->
<svg version="1.1" id="Layer_1" xmlns="http://www.w3.org/2000/svg" xmlns:xlink="http://www.w3.org/1999/xlink" x="0px" y="0px"
	 viewBox="0 0 429 178" style="enable-background:new 0 0 429 178;" xml:space="preserve">
<style type="text/css">
	.st0{fill:none;stroke:#31858F;stroke-width:8;stroke-miterlimit:10;}
	.st1{fill:#31858F;}
</style>
<path class="st0" d="M54.1,34.6c0,0-10.3,4.7-13.3,21.5c-2.9,15.9-5,51.8,3.7,67.6c8.2,15,78.2,29.1,82.3-18.7
	c3.9-45.7-65.2-50.2-55.5-19.2c7.9,25.1,60.9-10.6,45.3-38.3C99.9,17.7,59.4,31.5,54.1,34.6z"/>
<g>
	<path class="st1" d="M149.6,132.4c-2.7-1.5-4.8-3.6-6.3-6.4c-1.5-2.8-2.2-6-2.2-9.7c0-3.7,0.7-6.9,2.2-9.6c1.5-2.7,3.6-4.9,6.3-6.3
		c2.7-1.5,5.8-2.2,9.4-2.2c3.6,0,6.7,0.7,9.4,2.2c2.7,1.5,4.8,3.6,6.2,6.3c1.5,2.8,2.2,6,2.2,9.6c0,3.7-0.7,6.9-2.2,9.7
		c-1.5,2.8-3.5,4.9-6.2,6.4c-2.7,1.5-5.8,2.2-9.4,2.2C155.4,134.7,152.3,133.9,149.6,132.4z M165.6,124.8c1.5-1.9,2.3-4.7,2.3-8.5
		c0-3.7-0.8-6.5-2.3-8.4c-1.5-1.9-3.7-2.9-6.6-2.9c-2.9,0-5.1,1-6.6,2.9c-1.6,1.9-2.3,4.7-2.3,8.4c0,3.7,0.8,6.6,2.3,8.5
		c1.5,1.9,3.7,2.9,6.6,2.9C161.9,127.7,164.1,126.8,165.6,124.8z"/>
	<path class="st1" d="M190.8,132.4c-2.7-1.5-4.8-3.6-6.3-6.4c-1.5-2.8-2.2-6-2.2-9.7c0-3.7,0.7-6.9,2.2-9.6c1.5-2.7,3.6-4.9,6.3-6.3
		c2.7-1.5,5.8-2.2,9.4-2.2s6.7,0.7,9.4,2.2c2.7,1.5,4.8,3.6,6.2,6.3c1.5,2.8,2.2,6,2.2,9.6c0,3.7-0.7,6.9-2.2,9.7
		c-1.5,2.8-3.5,4.9-6.2,6.4c-2.7,1.5-5.8,2.2-9.4,2.2S193.5,133.9,190.8,132.4z M206.9,124.8c1.5-1.9,2.3-4.7,2.3-8.5
		c0-3.7-0.8-6.5-2.3-8.4c-1.5-1.9-3.7-2.9-6.6-2.9c-2.9,0-5.1,1-6.6,2.9c-1.6,1.9-2.3,4.7-2.3,8.4c0,3.7,0.8,6.6,2.3,8.5
		c1.5,1.9,3.7,2.9,6.6,2.9C203.1,127.7,205.3,126.8,206.9,124.8z"/>
	<path class="st1" d="M226.8,133.4c-0.8-0.7-1.3-1.8-1.3-3.2V87.4c0-1.4,0.4-2.4,1.3-3.2c0.8-0.7,1.9-1.1,3.2-1.1
		c1.3,0,2.4,0.4,3.2,1.1c0.9,0.7,1.3,1.8,1.3,3.2v42.8c0,1.4-0.4,2.5-1.3,3.2c-0.9,0.7-1.9,1.1-3.2,1.1
		C228.7,134.5,227.6,134.2,226.8,133.4z"/>
	<path class="st1" d="M282.4,112.4c1.6,2.2,2.4,4.8,2.4,7.9c0,4.3-1.5,7.7-4.6,10.1c-3.1,2.4-7.3,3.7-12.7,3.7H249
		c-1.4,0-2.5-0.4-3.3-1.1c-0.8-0.8-1.2-1.8-1.2-3.2V87.9c0-1.4,0.4-2.5,1.2-3.2c0.8-0.8,1.9-1.1,3.3-1.1h17.8
		c5.3,0,9.4,1.2,12.4,3.5c3,2.3,4.5,5.6,4.5,9.7c0,2.7-0.7,5-2.1,7c-1.4,2-3.4,3.4-5.8,4.3C278.6,108.8,280.8,110.3,282.4,112.4z
		 M253.6,104.8h11.7c6.4,0,9.5-2.4,9.5-7.1c0-2.4-0.8-4.2-2.4-5.3c-1.6-1.1-4-1.7-7.2-1.7h-11.7V104.8z M273.8,125.1
		c1.5-1.2,2.3-3.1,2.3-5.6c0-2.5-0.8-4.4-2.3-5.7c-1.6-1.2-4-1.9-7.3-1.9h-12.9v14.9h12.9C269.8,126.9,272.2,126.3,273.8,125.1z"/>
	<path class="st1" d="M322.5,101.8c2.1,2.4,3.1,6,3.1,10.8v17.6c0,1.3-0.4,2.4-1.2,3.2c-0.8,0.8-1.9,1.1-3.3,1.1
		c-1.4,0-2.5-0.4-3.3-1.1c-0.8-0.8-1.2-1.8-1.2-3.2v-17.1c0-2.7-0.5-4.7-1.5-6c-1-1.2-2.6-1.9-4.8-1.9c-2.6,0-4.7,0.8-6.2,2.4
		c-1.6,1.6-2.3,3.8-2.3,6.5v16c0,1.3-0.4,2.4-1.2,3.2c-0.8,0.8-1.9,1.1-3.3,1.1c-1.4,0-2.5-0.4-3.3-1.1c-0.8-0.8-1.2-1.8-1.2-3.2
		v-27.8c0-1.2,0.4-2.2,1.2-3c0.8-0.8,1.9-1.1,3.3-1.1c1.2,0,2.3,0.4,3,1.1c0.8,0.7,1.2,1.7,1.2,2.9v1.9c1.2-2,2.8-3.5,4.8-4.5
		c2-1.1,4.3-1.6,6.8-1.6C317.3,98.2,320.4,99.4,322.5,101.8z"/>
	<path class="st1" d="M362.9,100.4c2.3,1.5,4.2,3.6,5.5,6.3c1.3,2.7,2,5.9,2,9.5c0,3.6-0.7,6.8-2,9.6c-1.3,2.8-3.2,5-5.5,6.5
		c-2.4,1.5-5.1,2.3-8.1,2.3c-2.5,0-4.8-0.5-6.8-1.6c-2-1.1-3.5-2.6-4.6-4.6v1.8c0,1.3-0.4,2.3-1.2,3.1c-0.8,0.8-1.9,1.1-3.2,1.1
		c-1.3,0-2.4-0.4-3.2-1.1c-0.8-0.8-1.2-1.8-1.2-3.1V87.3c0-1.2,0.4-2.2,1.3-3c0.8-0.8,1.9-1.1,3.3-1.1c1.3,0,2.4,0.4,3.2,1.1
		c0.8,0.7,1.2,1.7,1.2,2.9v16.9c1.1-1.9,2.6-3.4,4.5-4.4c2-1,4.2-1.5,6.7-1.5C357.9,98.2,360.6,98.9,362.9,100.4z M359.1,124.7
		c1.6-2,2.4-4.8,2.4-8.5c0-3.6-0.8-6.3-2.3-8.2c-1.6-1.9-3.8-2.9-6.6-2.9s-5.1,1-6.6,2.9c-1.6,1.9-2.3,4.7-2.3,8.4
		c0,3.6,0.8,6.4,2.3,8.4c1.6,2,3.8,2.9,6.6,2.9C355.3,127.7,357.5,126.7,359.1,124.7z"/>
</g>
</svg>
