<?xml version="1.0" encoding="utf-8"?>
<!-- Generator: Adobe Illustrator 25.2.3, SVG Export Plug-In . SVG Version: 6.00 Build 0)  -->
<svg version="1.1" id="Layer_1" xmlns="http://www.w3.org/2000/svg" xmlns:xlink="http://www.w3.org/1999/xlink" x="0px" y="0px"
	 viewBox="0 0 22.2 18" style="enable-background:new 0 0 22.2 18;" xml:space="preserve">
<style type="text/css">
	.st0{fill:#333333;}
</style>
<path class="st0" d="M22.1,2.1c-0.8,0.4-1.7,0.6-2.6,0.7c1-0.6,1.7-1.5,2-2.5c-0.9,0.5-1.9,0.9-2.9,1.1c-1.7-1.8-4.6-1.9-6.4-0.2
	c-0.9,0.9-1.4,2.1-1.4,3.3c0,0.3,0,0.7,0.1,1C7.2,5.4,3.8,3.6,1.5,0.8C0.3,2.9,1,5.5,2.9,6.9c-0.7,0-1.4-0.2-2.1-0.5v0.1
	c0,2.2,1.5,4,3.6,4.5C4.1,10.9,3.7,11,3.3,11c-0.3,0-0.6,0-0.9-0.1c0.6,1.9,2.3,3.1,4.2,3.1c-1.6,1.3-3.6,2-5.6,2
	c-0.4,0-0.7,0-1.1-0.1c6,3.9,14,2.1,17.8-3.9c1.3-2.1,2.1-4.5,2-7c0-0.2,0-0.4,0-0.6C20.8,3.8,21.5,3,22.1,2.1L22.1,2.1z"/>
</svg>
