<svg id="Layer_1" data-name="Layer 1" xmlns="http://www.w3.org/2000/svg" viewBox="0 0 10 10"><defs><style>.cls-1{fill:#21767c;}</style></defs><path class="cls-1" d="M.06,4.12A10.78,10.78,0,0,1,1,3.24a6.69,6.69,0,0,1,8.71.56,2.78,2.78,0,0,1,.26.32v.26c-.27.44-.58.48-.95.12a5.72,5.72,0,0,0-8,0c-.37.36-.69.32-.95-.12Z"/><path class="cls-1" d="M8.15,6.19A2,2,0,0,1,7.81,6a3.85,3.85,0,0,0-2-1.14,3.81,3.81,0,0,0-3.53,1.1.94.94,0,0,1-.37.25A.44.44,0,0,1,1.35,6a.44.44,0,0,1,0-.57,6.94,6.94,0,0,1,.91-.81,4.87,4.87,0,0,1,6.27.72.53.53,0,0,1,.13.58C8.61,6.09,8.45,6.18,8.15,6.19Z"/><path class="cls-1" d="M6.92,7.65a.79.79,0,0,1-.3-.22,2,2,0,0,0-3.24,0,.49.49,0,1,1-.79-.59,3,3,0,0,1,4.83,0,.49.49,0,0,1,0,.54A.55.55,0,0,1,6.92,7.65Z"/><path class="cls-1" d="M6.12,8.6A1.12,1.12,0,1,1,5,7.49,1.13,1.13,0,0,1,6.12,8.6Z"/></svg>