<svg id="Layer_1" data-name="Layer 1" xmlns="http://www.w3.org/2000/svg" viewBox="0 0 10 10"><defs><style>.cls-1{fill:#21767c;}</style></defs><path class="cls-1" d="M9.66,5V9.55c0,.4-.05.44-.45.44H5.6s-.1,0-.13,0l-.26-.25c.09-.08.17-.23.26-.24a3.76,3.76,0,0,1,.75,0c.16,0,.23,0,.23-.22V.74c0-.17,0-.23-.22-.23-1.6,0-3.19,0-4.79,0-.19,0-.23.08-.23.25,0,.6,0,1.2,0,1.79,0,.2,0,.38-.27.37S.69,2.74.69,2.56V.37C.69.08.77,0,1.06,0H9.29c.31,0,.36.07.36.39C9.66,1.93,9.66,3.47,9.66,5ZM8.05,5.3h0c-.21,0-.41,0-.62,0a.27.27,0,0,0-.18.11.24.24,0,0,0,.06.19q.29.31.6.6a.28.28,0,0,0,.28,0,7.25,7.25,0,0,0,.62-.62c.13-.14.07-.28-.12-.29Zm0-.6h.59a.35.35,0,0,0,.21-.12s0-.15-.07-.2c-.18-.2-.38-.38-.57-.57a.21.21,0,0,0-.34,0c-.19.2-.38.38-.56.58a.23.23,0,0,0-.06.2.22.22,0,0,0,.18.11Z"/><path class="cls-1" d="M3.63,5.14c0,.45,0,.9,0,1.34a.52.52,0,0,0,.12.26c.19.26.38.51.59.76a.88.88,0,0,1,.24.65c0,.4,0,.8,0,1.2s-.17.58-.45.58-.47-.21-.47-.59,0-.64,0-1a1.2,1.2,0,0,0-.17-.48c-.17-.26-.38-.49-.62-.79a5.08,5.08,0,0,0-.18.62,1.67,1.67,0,0,1-.8,1.19c-.27.18-.51.41-.78.61a.44.44,0,0,1-.66-.06.46.46,0,0,1,.1-.66c.32-.26.65-.5,1-.76a.9.9,0,0,0,.21-.3,7.91,7.91,0,0,0,.34-3.31s0,0,0-.06a.42.42,0,0,0-.31.41,8.77,8.77,0,0,1,0,.88c0,.29-.2.45-.43.43S.88,5.89.89,5.61s0-.8.07-1.2A.65.65,0,0,1,1.17,4c.31-.26.65-.49,1-.73a1,1,0,0,1,1.44.25c.18.28.37.54.53.83a.67.67,0,0,0,.6.37,6.26,6.26,0,0,1,.74.1.38.38,0,1,1-.1.76,11.29,11.29,0,0,1-1.3-.18C3.92,5.38,3.8,5.24,3.63,5.14Z"/><path class="cls-1" d="M3.35,2.88a.8.8,0,0,1-.81-.79.79.79,0,0,1,.78-.78.79.79,0,0,1,0,1.57Z"/></svg>