<svg id="Layer_1" data-name="Layer 1" xmlns="http://www.w3.org/2000/svg" viewBox="0 0 10 10"><defs><style>.cls-1{fill:#21767c;}</style></defs><path class="cls-1" d="M8.11,7.8H1.9v.49c0,.22-.1.33-.32.33h-1a.28.28,0,0,1-.3-.31V5.26a1.19,1.19,0,0,1,.3-.8L1,4,.36,3.79a.33.33,0,0,1-.25-.26.32.32,0,0,1,.3-.4,3.85,3.85,0,0,1,.59,0,.77.77,0,0,1,.28.12c.05,0,.08.07.12.11.15-.3.28-.58.43-.87s.2-.36.3-.54a.8.8,0,0,1,.66-.43c.55-.06,1.09-.11,1.63-.13a16,16,0,0,1,2.5.08l.33.05A.85.85,0,0,1,7.87,2c.21.41.42.82.64,1.23a2.16,2.16,0,0,1,.09.2c.19-.31.49-.26.78-.26h.2a.32.32,0,0,1,.32.28.34.34,0,0,1-.24.37l-.51.14L9,4c.14.17.26.32.4.47a1.28,1.28,0,0,1,.34.9c0,1,0,2,0,2.93,0,.27-.09.36-.35.36h-1c-.24,0-.33-.1-.33-.35Zm-6.36-4a30.8,30.8,0,0,1,6.51,0c-.23-.46-.44-.89-.67-1.3S7.44,2,6.8,1.93a20.19,20.19,0,0,0-3.11,0,7.89,7.89,0,0,0-.85.1.32.32,0,0,0-.28.19c-.12.24-.26.48-.39.72Zm0,2.16a2.8,2.8,0,0,0,.36-.1.34.34,0,0,0,.22-.33.78.78,0,0,0-.65-.8.63.63,0,0,0-.73.46.6.6,0,0,0,.46.71A2.63,2.63,0,0,0,1.71,5.92Zm6.69,0a1.46,1.46,0,0,0,.39-.13.52.52,0,0,0,.31-.56.6.6,0,0,0-.43-.51A.74.74,0,0,0,7.84,5a.6.6,0,0,0-.08.63C7.87,5.87,8.09,5.9,8.4,5.91ZM5,6.77H6c.1,0,.15,0,.14-.14V6.3A.12.12,0,0,0,6,6.17H4c-.1,0-.14,0-.14.15v.29c0,.13,0,.16.16.16Z"/></svg>