<svg id="Layer_1" data-name="Layer 1" xmlns="http://www.w3.org/2000/svg" viewBox="0 0 10 10"><defs><style>.cls-1{fill:#21767c;}</style></defs><path class="cls-1" d="M9.89,7.54a3.12,3.12,0,0,1-.11.53A1.26,1.26,0,0,1,8.72,9H2.24a2.69,2.69,0,0,1-1.15-.23A1.7,1.7,0,0,1,.16,7.54a3.29,3.29,0,0,1,0-1.25,4.69,4.69,0,0,1,.11-.54A2.2,2.2,0,0,1,1,4.86a3.46,3.46,0,0,1,1.28-.62c.33-.09.67-.15,1-.23h.06v.61c0,.07,0,.1-.09.11A6.6,6.6,0,0,0,2,5.07a2.13,2.13,0,0,0-1,.78.68.68,0,0,0,.05.88A1.49,1.49,0,0,0,2,7.2a1.9,1.9,0,0,0,.75,0A5.59,5.59,0,0,1,4.49,7,8.22,8.22,0,0,0,5.6,7a6.34,6.34,0,0,1,1.79.18A1.65,1.65,0,0,0,8.65,7,.83.83,0,0,0,8.92,5.7,1.83,1.83,0,0,0,8,5.06a6.3,6.3,0,0,0-1.27-.35l-.12,0V4a6.1,6.1,0,0,1,2.21.71,2,2,0,0,1,1,1.41,1,1,0,0,1,0,.24,4.78,4.78,0,0,0,.08.76Z"/><path class="cls-1" d="M3.43,1.57c0,.1-.08.19-.11.29a2,2,0,0,0,0,.24A.27.27,0,0,1,3,2.36a.27.27,0,0,1-.24-.31A1.52,1.52,0,0,1,3,1.26.62.62,0,0,1,3.5,1a.33.33,0,0,1,.37.23A4.55,4.55,0,0,1,4,1.89a5,5,0,0,1,.07.56H5.83l-.1-.87H5.68a2,2,0,0,0-.1.26c0,.1,0,.21-.06.31a.26.26,0,0,1-.35.19A.28.28,0,0,1,5,2.08a1.48,1.48,0,0,1,.28-.83A.61.61,0,0,1,5.74,1a.35.35,0,0,1,.39.24,5.11,5.11,0,0,1,.17.7,19.31,19.31,0,0,1,.09,2.74l0,.82a.28.28,0,0,1-.26.28.27.27,0,0,1-.26-.3c0-.37,0-.74,0-1.11V4.26H4.14v.11l0,1.09A.3.3,0,0,1,4,5.7a.27.27,0,0,1-.28.06.24.24,0,0,1-.16-.25c0-.22,0-.45,0-.67,0-.77,0-1.54,0-2.31,0-.32-.06-.63-.09-.95ZM5.86,3H4.15v.72H5.86Z"/></svg>