<svg id="Layer_1" data-name="Layer 1" xmlns="http://www.w3.org/2000/svg" viewBox="0 0 10 10"><defs><style>.cls-1{fill:#21767c;}</style></defs><path class="cls-1" d="M4.82,2.56v-.5h.36v.5h.1c.36,0,.72,0,1.08,0A2.94,2.94,0,0,1,9.08,5.21c0,.21,0,.43,0,.65a.35.35,0,0,1-.36.32H1.28a.35.35,0,0,1-.37-.36A3.42,3.42,0,0,1,1,4.67a2.93,2.93,0,0,1,2.24-2,3.93,3.93,0,0,1,.6-.06c.29,0,.58,0,.86,0ZM5,4.7V4.62c0-.25,0-.5,0-.76,0-.06,0-.12-.07-.14a.17.17,0,0,0-.2.06l-.58.84a.2.2,0,0,0,0,.2.17.17,0,0,0,.17.08c.16,0,.33,0,.51,0,0,.1,0,.2,0,.3a.1.1,0,0,0,.07.09.08.08,0,0,0,.08,0,.14.14,0,0,0,0-.11A2.25,2.25,0,0,0,5,4.9h.15c.08,0,.12,0,.12-.1a.11.11,0,0,0-.12-.1Zm-1.73.35h0c.07-.08.15-.16.22-.25a1.47,1.47,0,0,0,.37-.48.44.44,0,0,0-.14-.55.48.48,0,0,0-.58,0Q3,3.91,3,4s.09,0,.18,0a.32.32,0,0,1,.36,0,.25.25,0,0,1,0,.33,1.14,1.14,0,0,1-.15.23L3,5a.15.15,0,0,0,0,.17c0,.06.08.06.13.06h.73c.1,0,.14,0,.14-.09s0-.1-.14-.1ZM6.86,3.9a.36.36,0,0,0,0,.07L6.29,5.13c0,.08,0,.14,0,.16s.11,0,.14-.08l.35-.74C6.88,4.3,7,4.13,7,4s0-.24-.13-.24H6.12a.1.1,0,0,0-.11.1c0,.07,0,.09.11.09h.74ZM5.22,5.22s0,0,0,.06.12,0,.15-.07c.16-.45.33-.9.49-1.34,0-.1,0-.16,0-.18s-.1,0-.14.11L5.25,5.14A.34.34,0,0,0,5.22,5.22Z"/><path class="cls-1" d="M.3,7.77a2.29,2.29,0,0,0,.24-.33c.16-.26.32-.53.46-.8a.25.25,0,0,1,.23-.15H8.72a.3.3,0,0,1,.3.19,4.32,4.32,0,0,0,.65,1,.11.11,0,0,1,0,0Z"/><path class="cls-1" d="M.15,8.71V8.07h9.7v.64Z"/><path class="cls-1" d="M5,1.86H4.25c-.06,0-.08,0-.08-.07V1.36c0-.05,0-.07.07-.07H5.76s.07,0,.07.07v.43c0,.05,0,.07-.07.07Z"/><path class="cls-1" d="M4.29,4.7,4.77,4v.7Z"/></svg>