<svg id="Layer_1" data-name="Layer 1" xmlns="http://www.w3.org/2000/svg" viewBox="0 0 10 10"><defs><style>.cls-1{fill:#21767c;}</style></defs><path class="cls-1" d="M9.89,7.29a1,1,0,0,1-.11.23.54.54,0,0,1-.47.23H6.49a.38.38,0,0,1-.4-.4V6.61a.54.54,0,0,0-.41-.5.54.54,0,0,0-.6.21A.83.83,0,0,0,5,6.48l0-.07a.56.56,0,0,0-1.06.21c0,.23,0,.46,0,.69a.4.4,0,0,1-.44.44H.71a.59.59,0,0,1-.57-.36.56.56,0,0,1,.58-.74c.64,0,1.29,0,1.93,0h.12a.48.48,0,0,1,0-.53c.31-.66.61-1.33.93-2A1.86,1.86,0,0,1,4,3.69a.72.72,0,0,1,.52-.23,8.18,8.18,0,0,1,1,0A.75.75,0,0,1,6.15,4c.34.74.69,1.48,1,2.21a.46.46,0,0,1,0,.49h2.1A.57.57,0,0,1,9.83,7a.84.84,0,0,1,.06.14Zm-6.1-1.5h0l-.4.86h.42Zm2.79.85L6.2,5.82h0v.81Z"/><path class="cls-1" d="M5,3.29a1,1,0,1,1,1-1A1,1,0,0,1,5,3.29Z"/><path class="cls-1" d="M4.83,7.45c0,.27,0,.53,0,.79a.36.36,0,0,1-.22.36.37.37,0,0,1-.4-.06.35.35,0,0,1-.13-.29V6.66a.36.36,0,0,1,.39-.38.37.37,0,0,1,.36.4C4.83,6.94,4.83,7.19,4.83,7.45Z"/><path class="cls-1" d="M5.9,7.46v.82a.38.38,0,0,1-.3.35.38.38,0,0,1-.41-.22.47.47,0,0,1,0-.16V6.66a.37.37,0,0,1,.38-.38.36.36,0,0,1,.37.38v.8Z"/><path class="cls-1" d="M9.34,3c.06,0,.13.07.15.12s0,.13,0,.19,0,0,0,0a.4.4,0,0,0,0,.52c.05.08.11.15.16.24a1,1,0,0,1,0,.79,4.21,4.21,0,0,1-.29.51A.19.19,0,0,1,9,5.5c-.09-.06-.1-.16,0-.27a4.52,4.52,0,0,0,.25-.49.53.53,0,0,0-.07-.51A1.54,1.54,0,0,1,9,3.85a.68.68,0,0,1,.2-.72A1,1,0,0,1,9.34,3Z"/><path class="cls-1" d="M.18,4.55a.85.85,0,0,1,.14-.49A1.4,1.4,0,0,0,.48,3.8a.35.35,0,0,0-.06-.39A.28.28,0,0,1,.34,3.3a.18.18,0,0,1,.07-.21.2.2,0,0,1,.24,0,.69.69,0,0,1,.21.74,1.11,1.11,0,0,1-.15.31.62.62,0,0,0-.06.74,2.39,2.39,0,0,0,.21.34.18.18,0,0,1,0,.21.15.15,0,0,1-.18.07.24.24,0,0,1-.11-.06A1.49,1.49,0,0,1,.18,4.55Z"/><path class="cls-1" d="M7.7,3c.06,0,.13.07.15.12a.41.41,0,0,1,0,.19l0,0a.4.4,0,0,0,0,.52,1.94,1.94,0,0,1,.15.24.89.89,0,0,1,0,.81,2.82,2.82,0,0,1-.27.48.19.19,0,0,1-.28.06.2.2,0,0,1,0-.28c.08-.14.17-.29.24-.44a.56.56,0,0,0-.08-.57.92.92,0,0,1-.21-.46.69.69,0,0,1,.24-.63A.58.58,0,0,1,7.7,3Z"/><path class="cls-1" d="M2.53,3.67a.71.71,0,0,1-.15.46.7.7,0,0,0,0,.92l.12.19a.19.19,0,0,1,0,.26.19.19,0,0,1-.26,0,1.58,1.58,0,0,1-.38-.93A.8.8,0,0,1,2,4.07c.05-.09.11-.18.15-.27a.34.34,0,0,0-.06-.39A.23.23,0,0,1,2,3.31a.18.18,0,0,1,.29-.2A.69.69,0,0,1,2.53,3.67Z"/></svg>